<svg xmlns="http://www.w3.org/2000/svg" width="256" height="256" viewBox="0 0 100 100"><rect width="100" height="100" rx="20" fill="#404714"></rect><path d="M39.17 61.69L47.30 61.69Q46.77 71.97 41.52 77.42Q36.27 82.87 26.69 82.87L26.69 82.87Q17.06 82.87 11.39 75.55Q5.73 68.24 5.73 55.71L5.73 55.71L5.73 44.11Q5.73 31.63 11.55 24.38Q17.37 17.13 27.43 17.13L27.43 17.13Q36.71 17.13 41.78 22.69Q46.86 28.25 47.30 38.57L47.30 38.57L39.17 38.57Q38.64 30.75 35.87 27.41Q33.10 24.07 27.43 24.07L27.43 24.07Q20.89 24.07 17.37 29.19Q13.85 34.31 13.85 44.20L13.85 44.20L13.85 55.93Q13.85 65.64 17.13 70.83Q20.40 76.02 26.69 76.02Q32.97 76.02 35.74 72.90Q38.51 69.78 39.17 61.69L39.17 61.69ZM86.15 65.82L86.15 65.82Q86.15 61.03 83.55 58.48Q80.96 55.93 74.19 53.52Q67.42 51.10 63.84 48.44Q60.26 45.78 58.48 42.38Q56.70 38.97 56.70 34.58L56.70 34.58Q56.70 26.97 61.78 22.05Q66.85 17.13 75.07 17.13L75.07 17.13Q80.70 17.13 85.09 19.66Q89.48 22.18 91.86 26.67Q94.23 31.15 94.23 36.51L94.23 36.51L86.15 36.51Q86.15 30.58 83.29 27.32Q80.43 24.07 75.07 24.07L75.07 24.07Q70.19 24.07 67.51 26.80Q64.83 29.52 64.83 34.44L64.83 34.44Q64.83 38.49 67.73 41.21Q70.63 43.94 76.70 46.09L76.70 46.09Q86.15 49.21 90.21 53.78Q94.27 58.35 94.27 65.73L94.27 65.73Q94.27 73.51 89.22 78.19Q84.17 82.87 75.47 82.87L75.47 82.87Q69.89 82.87 65.16 80.43Q60.44 77.99 57.73 73.58Q55.03 69.16 55.03 63.45L55.03 63.45L63.12 63.45Q63.12 69.38 66.44 72.68Q69.75 75.97 75.47 75.97L75.47 75.97Q80.78 75.97 83.46 73.25Q86.15 70.52 86.15 65.82Z" fill="#fff"></path></svg>